G04 #@! TF.GenerationSoftware,KiCad,Pcbnew,(6.0.4)*
G04 #@! TF.CreationDate,2023-03-06T11:11:44-05:00*
G04 #@! TF.ProjectId,LED_Module,4c45445f-4d6f-4647-956c-652e6b696361,rev?*
G04 #@! TF.SameCoordinates,Original*
G04 #@! TF.FileFunction,Soldermask,Top*
G04 #@! TF.FilePolarity,Negative*
%FSLAX46Y46*%
G04 Gerber Fmt 4.6, Leading zero omitted, Abs format (unit mm)*
G04 Created by KiCad (PCBNEW (6.0.4)) date 2023-03-06 11:11:44*
%MOMM*%
%LPD*%
G01*
G04 APERTURE LIST*
G04 Aperture macros list*
%AMRoundRect*
0 Rectangle with rounded corners*
0 $1 Rounding radius*
0 $2 $3 $4 $5 $6 $7 $8 $9 X,Y pos of 4 corners*
0 Add a 4 corners polygon primitive as box body*
4,1,4,$2,$3,$4,$5,$6,$7,$8,$9,$2,$3,0*
0 Add four circle primitives for the rounded corners*
1,1,$1+$1,$2,$3*
1,1,$1+$1,$4,$5*
1,1,$1+$1,$6,$7*
1,1,$1+$1,$8,$9*
0 Add four rect primitives between the rounded corners*
20,1,$1+$1,$2,$3,$4,$5,0*
20,1,$1+$1,$4,$5,$6,$7,0*
20,1,$1+$1,$6,$7,$8,$9,0*
20,1,$1+$1,$8,$9,$2,$3,0*%
G04 Aperture macros list end*
%ADD10RoundRect,0.250000X0.350000X0.450000X-0.350000X0.450000X-0.350000X-0.450000X0.350000X-0.450000X0*%
%ADD11R,0.340000X0.700000*%
%ADD12RoundRect,0.250000X0.450000X-0.350000X0.450000X0.350000X-0.450000X0.350000X-0.450000X-0.350000X0*%
%ADD13RoundRect,0.250000X-0.350000X-0.625000X0.350000X-0.625000X0.350000X0.625000X-0.350000X0.625000X0*%
%ADD14O,1.200000X1.750000*%
%ADD15RoundRect,0.250000X-0.650000X0.412500X-0.650000X-0.412500X0.650000X-0.412500X0.650000X0.412500X0*%
%ADD16RoundRect,0.250000X-0.325000X-0.450000X0.325000X-0.450000X0.325000X0.450000X-0.325000X0.450000X0*%
%ADD17R,1.600000X1.600000*%
%ADD18O,1.600000X1.600000*%
%ADD19R,1.700000X1.700000*%
%ADD20O,1.700000X1.700000*%
%ADD21RoundRect,0.250000X0.325000X0.450000X-0.325000X0.450000X-0.325000X-0.450000X0.325000X-0.450000X0*%
%ADD22C,3.200000*%
%ADD23C,3.200001*%
%ADD24RoundRect,0.250000X-0.600000X-0.600000X0.600000X-0.600000X0.600000X0.600000X-0.600000X0.600000X0*%
%ADD25C,1.700000*%
%ADD26RoundRect,0.250000X-0.475000X0.337500X-0.475000X-0.337500X0.475000X-0.337500X0.475000X0.337500X0*%
%ADD27R,1.550000X1.300000*%
%ADD28RoundRect,0.250000X-0.350000X-0.450000X0.350000X-0.450000X0.350000X0.450000X-0.350000X0.450000X0*%
%ADD29RoundRect,0.250000X-0.450000X0.350000X-0.450000X-0.350000X0.450000X-0.350000X0.450000X0.350000X0*%
%ADD30RoundRect,0.075000X-0.700000X-0.075000X0.700000X-0.075000X0.700000X0.075000X-0.700000X0.075000X0*%
%ADD31RoundRect,0.075000X-0.075000X-0.700000X0.075000X-0.700000X0.075000X0.700000X-0.075000X0.700000X0*%
%ADD32RoundRect,0.250000X0.337500X0.475000X-0.337500X0.475000X-0.337500X-0.475000X0.337500X-0.475000X0*%
%ADD33RoundRect,0.250000X-0.450000X0.325000X-0.450000X-0.325000X0.450000X-0.325000X0.450000X0.325000X0*%
%ADD34R,1.500000X2.000000*%
%ADD35R,3.800000X2.000000*%
%ADD36R,0.600000X0.450000*%
%ADD37RoundRect,0.155000X0.155000X-0.212500X0.155000X0.212500X-0.155000X0.212500X-0.155000X-0.212500X0*%
%ADD38C,1.600000*%
%ADD39R,0.450000X0.600000*%
%ADD40RoundRect,0.250000X0.475000X-0.337500X0.475000X0.337500X-0.475000X0.337500X-0.475000X-0.337500X0*%
%ADD41RoundRect,0.237500X-0.287500X-0.237500X0.287500X-0.237500X0.287500X0.237500X-0.287500X0.237500X0*%
%ADD42C,0.800000*%
G04 APERTURE END LIST*
D10*
G04 #@! TO.C,R14*
X109728000Y-78486000D03*
X107728000Y-78486000D03*
G04 #@! TD*
D11*
G04 #@! TO.C,U3*
X99128200Y-108808912D03*
X98628200Y-108808912D03*
X98128200Y-108808912D03*
X98128200Y-110308912D03*
X98628200Y-110308912D03*
X99128200Y-110308912D03*
G04 #@! TD*
D12*
G04 #@! TO.C,R3*
X100660200Y-114563400D03*
X100660200Y-112563400D03*
G04 #@! TD*
D13*
G04 #@! TO.C,J2*
X73512800Y-106884000D03*
D14*
X75512800Y-106884000D03*
X77512800Y-106884000D03*
G04 #@! TD*
D12*
G04 #@! TO.C,R2*
X94636500Y-61782000D03*
X94636500Y-59782000D03*
G04 #@! TD*
D15*
G04 #@! TO.C,C15*
X102616000Y-107569000D03*
X102616000Y-110694000D03*
G04 #@! TD*
D16*
G04 #@! TO.C,D8*
X54661800Y-100415000D03*
X56711800Y-100415000D03*
G04 #@! TD*
D17*
G04 #@! TO.C,U4*
X54991000Y-83947000D03*
D18*
X54991000Y-86487000D03*
X54991000Y-89027000D03*
X54991000Y-91567000D03*
X62611000Y-91567000D03*
X62611000Y-89027000D03*
X62611000Y-86487000D03*
X62611000Y-83947000D03*
G04 #@! TD*
D19*
G04 #@! TO.C,J4*
X93091000Y-107950000D03*
D20*
X93091000Y-110490000D03*
G04 #@! TD*
D21*
G04 #@! TO.C,D5*
X114808000Y-81915000D03*
X112758000Y-81915000D03*
G04 #@! TD*
G04 #@! TO.C,D3*
X114808000Y-89154000D03*
X112758000Y-89154000D03*
G04 #@! TD*
D22*
G04 #@! TO.C,H2*
X55000000Y-115000000D03*
G04 #@! TD*
D10*
G04 #@! TO.C,R13*
X109728000Y-81915000D03*
X107728000Y-81915000D03*
G04 #@! TD*
G04 #@! TO.C,R12*
X109728000Y-85471000D03*
X107728000Y-85471000D03*
G04 #@! TD*
D23*
G04 #@! TO.C,H1*
X114999999Y-54999992D03*
G04 #@! TD*
D24*
G04 #@! TO.C,J1*
X55499000Y-64770000D03*
D25*
X58039000Y-64770000D03*
X55499000Y-67310000D03*
X58039000Y-67310000D03*
X55499000Y-69850000D03*
X58039000Y-69850000D03*
X55499000Y-72390000D03*
X58039000Y-72390000D03*
X55499000Y-74930000D03*
X58039000Y-74930000D03*
G04 #@! TD*
D26*
G04 #@! TO.C,C11*
X96088200Y-108461900D03*
X96088200Y-110536900D03*
G04 #@! TD*
D15*
G04 #@! TO.C,C17*
X107391200Y-107569000D03*
X107391200Y-110694000D03*
G04 #@! TD*
D27*
G04 #@! TO.C,SW2*
X81412000Y-76753000D03*
X73452000Y-76753000D03*
X81412000Y-72253000D03*
X73452000Y-72253000D03*
G04 #@! TD*
D28*
G04 #@! TO.C,R10*
X92874000Y-65649000D03*
X94874000Y-65649000D03*
G04 #@! TD*
D29*
G04 #@! TO.C,R16*
X116631000Y-105354000D03*
X116631000Y-107354000D03*
G04 #@! TD*
D12*
G04 #@! TO.C,R4*
X103200200Y-114547400D03*
X103200200Y-112547400D03*
G04 #@! TD*
D30*
G04 #@! TO.C,U2*
X82844000Y-83245000D03*
X82844000Y-83745000D03*
X82844000Y-84245000D03*
X82844000Y-84745000D03*
X82844000Y-85245000D03*
X82844000Y-85745000D03*
X82844000Y-86245000D03*
X82844000Y-86745000D03*
X82844000Y-87245000D03*
X82844000Y-87745000D03*
X82844000Y-88245000D03*
X82844000Y-88745000D03*
X82844000Y-89245000D03*
X82844000Y-89745000D03*
X82844000Y-90245000D03*
X82844000Y-90745000D03*
D31*
X84769000Y-92670000D03*
X85269000Y-92670000D03*
X85769000Y-92670000D03*
X86269000Y-92670000D03*
X86769000Y-92670000D03*
X87269000Y-92670000D03*
X87769000Y-92670000D03*
X88269000Y-92670000D03*
X88769000Y-92670000D03*
X89269000Y-92670000D03*
X89769000Y-92670000D03*
X90269000Y-92670000D03*
X90769000Y-92670000D03*
X91269000Y-92670000D03*
X91769000Y-92670000D03*
X92269000Y-92670000D03*
D30*
X94194000Y-90745000D03*
X94194000Y-90245000D03*
X94194000Y-89745000D03*
X94194000Y-89245000D03*
X94194000Y-88745000D03*
X94194000Y-88245000D03*
X94194000Y-87745000D03*
X94194000Y-87245000D03*
X94194000Y-86745000D03*
X94194000Y-86245000D03*
X94194000Y-85745000D03*
X94194000Y-85245000D03*
X94194000Y-84745000D03*
X94194000Y-84245000D03*
X94194000Y-83745000D03*
X94194000Y-83245000D03*
D31*
X92269000Y-81320000D03*
X91769000Y-81320000D03*
X91269000Y-81320000D03*
X90769000Y-81320000D03*
X90269000Y-81320000D03*
X89769000Y-81320000D03*
X89269000Y-81320000D03*
X88769000Y-81320000D03*
X88269000Y-81320000D03*
X87769000Y-81320000D03*
X87269000Y-81320000D03*
X86769000Y-81320000D03*
X86269000Y-81320000D03*
X85769000Y-81320000D03*
X85269000Y-81320000D03*
X84769000Y-81320000D03*
G04 #@! TD*
D32*
G04 #@! TO.C,C19*
X88948000Y-71618000D03*
X86873000Y-71618000D03*
G04 #@! TD*
D26*
G04 #@! TO.C,C9*
X69951600Y-105410000D03*
X69951600Y-107485000D03*
G04 #@! TD*
D33*
G04 #@! TO.C,D9*
X116586000Y-100584000D03*
X116586000Y-102634000D03*
G04 #@! TD*
D26*
G04 #@! TO.C,C3*
X57886600Y-105773400D03*
X57886600Y-107848400D03*
G04 #@! TD*
D21*
G04 #@! TO.C,D6*
X114808000Y-78486000D03*
X112758000Y-78486000D03*
G04 #@! TD*
D28*
G04 #@! TO.C,R7*
X81158000Y-63109000D03*
X83158000Y-63109000D03*
G04 #@! TD*
D15*
G04 #@! TO.C,C13*
X105003600Y-107569000D03*
X105003600Y-110694000D03*
G04 #@! TD*
D34*
G04 #@! TO.C,U1*
X65102800Y-103225600D03*
X62802800Y-103225600D03*
D35*
X62802800Y-109525600D03*
D34*
X60502800Y-103225600D03*
G04 #@! TD*
D26*
G04 #@! TO.C,C1*
X55854600Y-105773400D03*
X55854600Y-107848400D03*
G04 #@! TD*
D32*
G04 #@! TO.C,C16*
X57023000Y-94615000D03*
X54948000Y-94615000D03*
G04 #@! TD*
D27*
G04 #@! TO.C,SW1*
X90408400Y-52421400D03*
X82448400Y-52421400D03*
X90408400Y-56921400D03*
X82448400Y-56921400D03*
G04 #@! TD*
D36*
G04 #@! TO.C,D7*
X110634200Y-104978200D03*
X108534200Y-104978200D03*
G04 #@! TD*
G04 #@! TO.C,D2*
X74145800Y-103420000D03*
X72045800Y-103420000D03*
G04 #@! TD*
D10*
G04 #@! TO.C,R9*
X109728000Y-89154000D03*
X107728000Y-89154000D03*
G04 #@! TD*
D22*
G04 #@! TO.C,H4*
X55000000Y-55000000D03*
G04 #@! TD*
D28*
G04 #@! TO.C,R8*
X81190000Y-65649000D03*
X83190000Y-65649000D03*
G04 #@! TD*
D10*
G04 #@! TO.C,R5*
X69056000Y-91567000D03*
X67056000Y-91567000D03*
G04 #@! TD*
D26*
G04 #@! TO.C,C18*
X84841000Y-73734000D03*
X84841000Y-75809000D03*
G04 #@! TD*
D37*
G04 #@! TO.C,C12*
X98628200Y-113622900D03*
X98628200Y-112487900D03*
G04 #@! TD*
D26*
G04 #@! TO.C,C7*
X67767200Y-105410000D03*
X67767200Y-107485000D03*
G04 #@! TD*
D10*
G04 #@! TO.C,R11*
X99536000Y-83185000D03*
X97536000Y-83185000D03*
G04 #@! TD*
D19*
G04 #@! TO.C,J3*
X86868000Y-60579000D03*
D20*
X89408000Y-60579000D03*
X86868000Y-63119000D03*
X89408000Y-63119000D03*
X86868000Y-65659000D03*
X89408000Y-65659000D03*
X86868000Y-68199000D03*
X89408000Y-68199000D03*
G04 #@! TD*
D38*
G04 #@! TO.C,C14*
X85369400Y-112061000D03*
X85369400Y-107061000D03*
G04 #@! TD*
D39*
G04 #@! TO.C,D1*
X63570800Y-114410000D03*
X63570800Y-112310000D03*
G04 #@! TD*
D10*
G04 #@! TO.C,R1*
X89503000Y-76327000D03*
X87503000Y-76327000D03*
G04 #@! TD*
D40*
G04 #@! TO.C,C10*
X94280900Y-56037400D03*
X94280900Y-53962400D03*
G04 #@! TD*
D21*
G04 #@! TO.C,D4*
X114826000Y-85471000D03*
X112776000Y-85471000D03*
G04 #@! TD*
D28*
G04 #@! TO.C,R15*
X59431800Y-100280000D03*
X61431800Y-100280000D03*
G04 #@! TD*
D41*
G04 #@! TO.C,L1*
X98707000Y-107061000D03*
X100457000Y-107061000D03*
G04 #@! TD*
D22*
G04 #@! TO.C,H3*
X115000000Y-115000000D03*
G04 #@! TD*
D28*
G04 #@! TO.C,R6*
X67056000Y-89027000D03*
X69056000Y-89027000D03*
G04 #@! TD*
D42*
X67634800Y-103293000D03*
X67634800Y-108881000D03*
X92179428Y-90551000D03*
X76073000Y-96647000D03*
X76052800Y-103455000D03*
X92075000Y-82931000D03*
X83947000Y-79883000D03*
X86995000Y-91059000D03*
X80899000Y-90043000D03*
X67437000Y-70104000D03*
X96139000Y-74549000D03*
X70612000Y-77343000D03*
X93726000Y-78232000D03*
X80772000Y-91440000D03*
X81661000Y-93726000D03*
X85598000Y-95123000D03*
X87249000Y-95758000D03*
X88265000Y-94361000D03*
X88519000Y-95504000D03*
X97282000Y-91567000D03*
X98044000Y-90678000D03*
X83566000Y-60833000D03*
X83566000Y-69596000D03*
X88519000Y-78486000D03*
X74295000Y-81153000D03*
X89281000Y-79502000D03*
X66929000Y-87249000D03*
X116586000Y-99695000D03*
X91572000Y-71618000D03*
X82169000Y-116713000D03*
X77673200Y-111048800D03*
X91059000Y-90551000D03*
X77830800Y-112980000D03*
X106680000Y-116713000D03*
X77806000Y-76584980D03*
X85979000Y-79883000D03*
X54716800Y-101804000D03*
X93726000Y-115951000D03*
X116223000Y-85471000D03*
X61595000Y-116967000D03*
X92075000Y-84963000D03*
X91572000Y-60569000D03*
X116205000Y-78613000D03*
X93588451Y-112646633D03*
X86614000Y-114046000D03*
X85471000Y-90551000D03*
X69469000Y-117094000D03*
X74401800Y-115393000D03*
X72491600Y-113487200D03*
X94767400Y-52421400D03*
X116205000Y-89154000D03*
X116205000Y-81915000D03*
X80899000Y-88011000D03*
X106934000Y-112141000D03*
X98425000Y-84836000D03*
X83820000Y-103288500D03*
X100177600Y-108508800D03*
X98628200Y-114579400D03*
M02*
