M48
; DRILL file {KiCad (6.0.4)} date Mon Mar  6 11:12:27 2023
; FORMAT={-:-/ absolute / inch / decimal}
; #@! TF.CreationDate,2023-03-06T11:12:27-05:00
; #@! TF.GenerationSoftware,Kicad,Pcbnew,(6.0.4)
; #@! TF.FileFunction,Plated,1,2,PTH
FMAT,2
INCH
; #@! TA.AperFunction,Plated,PTH,ViaDrill
T1C0.0157
; #@! TA.AperFunction,Plated,PTH,ComponentDrill
T2C0.0295
; #@! TA.AperFunction,Plated,PTH,ComponentDrill
T3C0.0315
; #@! TA.AperFunction,Plated,PTH,ComponentDrill
T4C0.0394
%
G90
G05
T1
X2.1542Y-4.008
X2.425Y-4.605
X2.635Y-3.435
X2.655Y-2.76
X2.6628Y-4.0667
X2.6628Y-4.2867
X2.735Y-4.61
X2.78Y-3.045
X2.854Y-4.468
X2.925Y-3.195
X2.9292Y-4.543
X2.9942Y-4.073
X2.995Y-3.805
X3.058Y-4.372
X3.0632Y-3.0152
X3.0642Y-4.448
X3.18Y-3.6
X3.185Y-3.465
X3.185Y-3.545
X3.215Y-3.69
X3.235Y-4.595
X3.29Y-2.395
X3.29Y-2.74
X3.3Y-4.0665
X3.305Y-3.145
X3.365Y-3.565
X3.37Y-3.745
X3.385Y-3.145
X3.41Y-4.49
X3.425Y-3.585
X3.435Y-3.77
X3.475Y-3.715
X3.485Y-3.09
X3.485Y-3.76
X3.515Y-3.13
X3.585Y-3.565
X3.6052Y-2.3846
X3.6052Y-2.8196
X3.625Y-3.265
X3.625Y-3.345
X3.6291Y-3.565
X3.6846Y-4.4349
X3.69Y-3.08
X3.69Y-4.565
X3.731Y-2.0638
X3.785Y-2.935
X3.83Y-3.605
X3.86Y-3.57
X3.875Y-3.34
X3.883Y-4.511
X3.944Y-4.272
X4.2Y-4.595
X4.21Y-4.415
X4.575Y-3.095
X4.575Y-3.225
X4.575Y-3.51
X4.5757Y-3.365
X4.59Y-3.925
T2
X2.8942Y-4.208
X2.9729Y-4.208
X3.0517Y-4.208
T3
X2.165Y-3.305
X2.165Y-3.405
X2.165Y-3.505
X2.165Y-3.605
X2.465Y-3.305
X2.465Y-3.405
X2.465Y-3.505
X2.465Y-3.605
X3.361Y-4.215
X3.361Y-4.4119
T4
X2.185Y-2.55
X2.185Y-2.65
X2.185Y-2.75
X2.185Y-2.85
X2.185Y-2.95
X2.285Y-2.55
X2.285Y-2.65
X2.285Y-2.75
X2.285Y-2.85
X2.285Y-2.95
X3.42Y-2.385
X3.42Y-2.485
X3.42Y-2.585
X3.42Y-2.685
X3.52Y-2.385
X3.52Y-2.485
X3.52Y-2.585
X3.52Y-2.685
X3.665Y-4.25
X3.665Y-4.35
T0
M30
