G04 #@! TF.GenerationSoftware,KiCad,Pcbnew,(6.0.4)*
G04 #@! TF.CreationDate,2023-03-06T11:11:44-05:00*
G04 #@! TF.ProjectId,LED_Module,4c45445f-4d6f-4647-956c-652e6b696361,rev?*
G04 #@! TF.SameCoordinates,Original*
G04 #@! TF.FileFunction,Legend,Bot*
G04 #@! TF.FilePolarity,Positive*
%FSLAX46Y46*%
G04 Gerber Fmt 4.6, Leading zero omitted, Abs format (unit mm)*
G04 Created by KiCad (PCBNEW (6.0.4)) date 2023-03-06 11:11:44*
%MOMM*%
%LPD*%
G01*
G04 APERTURE LIST*
G04 Aperture macros list*
%AMRoundRect*
0 Rectangle with rounded corners*
0 $1 Rounding radius*
0 $2 $3 $4 $5 $6 $7 $8 $9 X,Y pos of 4 corners*
0 Add a 4 corners polygon primitive as box body*
4,1,4,$2,$3,$4,$5,$6,$7,$8,$9,$2,$3,0*
0 Add four circle primitives for the rounded corners*
1,1,$1+$1,$2,$3*
1,1,$1+$1,$4,$5*
1,1,$1+$1,$6,$7*
1,1,$1+$1,$8,$9*
0 Add four rect primitives between the rounded corners*
20,1,$1+$1,$2,$3,$4,$5,0*
20,1,$1+$1,$4,$5,$6,$7,0*
20,1,$1+$1,$6,$7,$8,$9,0*
20,1,$1+$1,$8,$9,$2,$3,0*%
G04 Aperture macros list end*
%ADD10C,0.150000*%
%ADD11C,0.120000*%
%ADD12RoundRect,0.250000X-0.350000X-0.625000X0.350000X-0.625000X0.350000X0.625000X-0.350000X0.625000X0*%
%ADD13O,1.200000X1.750000*%
%ADD14R,1.600000X1.600000*%
%ADD15O,1.600000X1.600000*%
%ADD16R,1.700000X1.700000*%
%ADD17O,1.700000X1.700000*%
%ADD18C,3.200000*%
%ADD19C,3.200001*%
%ADD20RoundRect,0.250000X-0.600000X-0.600000X0.600000X-0.600000X0.600000X0.600000X-0.600000X0.600000X0*%
%ADD21C,1.700000*%
%ADD22C,1.600000*%
%ADD23RoundRect,0.250000X-0.337500X-0.475000X0.337500X-0.475000X0.337500X0.475000X-0.337500X0.475000X0*%
%ADD24RoundRect,0.250000X-0.475000X0.337500X-0.475000X-0.337500X0.475000X-0.337500X0.475000X0.337500X0*%
%ADD25RoundRect,0.250000X0.337500X0.475000X-0.337500X0.475000X-0.337500X-0.475000X0.337500X-0.475000X0*%
%ADD26RoundRect,0.250000X0.475000X-0.337500X0.475000X0.337500X-0.475000X0.337500X-0.475000X-0.337500X0*%
%ADD27C,0.800000*%
G04 APERTURE END LIST*
D10*
G04 #@! TO.C,C4*
X85129666Y-80396142D02*
X85177285Y-80443761D01*
X85320142Y-80491380D01*
X85415380Y-80491380D01*
X85558238Y-80443761D01*
X85653476Y-80348523D01*
X85701095Y-80253285D01*
X85748714Y-80062809D01*
X85748714Y-79919952D01*
X85701095Y-79729476D01*
X85653476Y-79634238D01*
X85558238Y-79539000D01*
X85415380Y-79491380D01*
X85320142Y-79491380D01*
X85177285Y-79539000D01*
X85129666Y-79586619D01*
X84272523Y-79824714D02*
X84272523Y-80491380D01*
X84510619Y-79443761D02*
X84748714Y-80158047D01*
X84129666Y-80158047D01*
G04 #@! TO.C,C6*
X89228142Y-83780333D02*
X89275761Y-83732714D01*
X89323380Y-83589857D01*
X89323380Y-83494619D01*
X89275761Y-83351761D01*
X89180523Y-83256523D01*
X89085285Y-83208904D01*
X88894809Y-83161285D01*
X88751952Y-83161285D01*
X88561476Y-83208904D01*
X88466238Y-83256523D01*
X88371000Y-83351761D01*
X88323380Y-83494619D01*
X88323380Y-83589857D01*
X88371000Y-83732714D01*
X88418619Y-83780333D01*
X88323380Y-84637476D02*
X88323380Y-84447000D01*
X88371000Y-84351761D01*
X88418619Y-84304142D01*
X88561476Y-84208904D01*
X88751952Y-84161285D01*
X89132904Y-84161285D01*
X89228142Y-84208904D01*
X89275761Y-84256523D01*
X89323380Y-84351761D01*
X89323380Y-84542238D01*
X89275761Y-84637476D01*
X89228142Y-84685095D01*
X89132904Y-84732714D01*
X88894809Y-84732714D01*
X88799571Y-84685095D01*
X88751952Y-84637476D01*
X88704333Y-84542238D01*
X88704333Y-84351761D01*
X88751952Y-84256523D01*
X88799571Y-84208904D01*
X88894809Y-84161285D01*
G04 #@! TO.C,C2*
X86653666Y-87704142D02*
X86701285Y-87751761D01*
X86844142Y-87799380D01*
X86939380Y-87799380D01*
X87082238Y-87751761D01*
X87177476Y-87656523D01*
X87225095Y-87561285D01*
X87272714Y-87370809D01*
X87272714Y-87227952D01*
X87225095Y-87037476D01*
X87177476Y-86942238D01*
X87082238Y-86847000D01*
X86939380Y-86799380D01*
X86844142Y-86799380D01*
X86701285Y-86847000D01*
X86653666Y-86894619D01*
X86272714Y-86894619D02*
X86225095Y-86847000D01*
X86129857Y-86799380D01*
X85891761Y-86799380D01*
X85796523Y-86847000D01*
X85748904Y-86894619D01*
X85701285Y-86989857D01*
X85701285Y-87085095D01*
X85748904Y-87227952D01*
X86320333Y-87799380D01*
X85701285Y-87799380D01*
G04 #@! TO.C,C8*
X80904142Y-88860333D02*
X80951761Y-88812714D01*
X80999380Y-88669857D01*
X80999380Y-88574619D01*
X80951761Y-88431761D01*
X80856523Y-88336523D01*
X80761285Y-88288904D01*
X80570809Y-88241285D01*
X80427952Y-88241285D01*
X80237476Y-88288904D01*
X80142238Y-88336523D01*
X80047000Y-88431761D01*
X79999380Y-88574619D01*
X79999380Y-88669857D01*
X80047000Y-88812714D01*
X80094619Y-88860333D01*
X80427952Y-89431761D02*
X80380333Y-89336523D01*
X80332714Y-89288904D01*
X80237476Y-89241285D01*
X80189857Y-89241285D01*
X80094619Y-89288904D01*
X80047000Y-89336523D01*
X79999380Y-89431761D01*
X79999380Y-89622238D01*
X80047000Y-89717476D01*
X80094619Y-89765095D01*
X80189857Y-89812714D01*
X80237476Y-89812714D01*
X80332714Y-89765095D01*
X80380333Y-89717476D01*
X80427952Y-89622238D01*
X80427952Y-89431761D01*
X80475571Y-89336523D01*
X80523190Y-89288904D01*
X80618428Y-89241285D01*
X80808904Y-89241285D01*
X80904142Y-89288904D01*
X80951761Y-89336523D01*
X80999380Y-89431761D01*
X80999380Y-89622238D01*
X80951761Y-89717476D01*
X80904142Y-89765095D01*
X80808904Y-89812714D01*
X80618428Y-89812714D01*
X80523190Y-89765095D01*
X80475571Y-89717476D01*
X80427952Y-89622238D01*
G04 #@! TO.C,C5*
X91225666Y-87704142D02*
X91273285Y-87751761D01*
X91416142Y-87799380D01*
X91511380Y-87799380D01*
X91654238Y-87751761D01*
X91749476Y-87656523D01*
X91797095Y-87561285D01*
X91844714Y-87370809D01*
X91844714Y-87227952D01*
X91797095Y-87037476D01*
X91749476Y-86942238D01*
X91654238Y-86847000D01*
X91511380Y-86799380D01*
X91416142Y-86799380D01*
X91273285Y-86847000D01*
X91225666Y-86894619D01*
X90320904Y-86799380D02*
X90797095Y-86799380D01*
X90844714Y-87275571D01*
X90797095Y-87227952D01*
X90701857Y-87180333D01*
X90463761Y-87180333D01*
X90368523Y-87227952D01*
X90320904Y-87275571D01*
X90273285Y-87370809D01*
X90273285Y-87608904D01*
X90320904Y-87704142D01*
X90368523Y-87751761D01*
X90463761Y-87799380D01*
X90701857Y-87799380D01*
X90797095Y-87751761D01*
X90844714Y-87704142D01*
D11*
G04 #@! TO.C,C4*
X84701748Y-77624000D02*
X85224252Y-77624000D01*
X84701748Y-79094000D02*
X85224252Y-79094000D01*
G04 #@! TO.C,C6*
X89816000Y-83685748D02*
X89816000Y-84208252D01*
X91286000Y-83685748D02*
X91286000Y-84208252D01*
G04 #@! TO.C,C2*
X86748252Y-88292000D02*
X86225748Y-88292000D01*
X86748252Y-89762000D02*
X86225748Y-89762000D01*
G04 #@! TO.C,C8*
X78132000Y-89288252D02*
X78132000Y-88765748D01*
X79602000Y-89288252D02*
X79602000Y-88765748D01*
G04 #@! TO.C,C5*
X91320252Y-89762000D02*
X90797748Y-89762000D01*
X91320252Y-88292000D02*
X90797748Y-88292000D01*
G04 #@! TD*
%LPC*%
D12*
G04 #@! TO.C,J2*
X73512800Y-106884000D03*
D13*
X75512800Y-106884000D03*
X77512800Y-106884000D03*
G04 #@! TD*
D14*
G04 #@! TO.C,U4*
X54991000Y-83947000D03*
D15*
X54991000Y-86487000D03*
X54991000Y-89027000D03*
X54991000Y-91567000D03*
X62611000Y-91567000D03*
X62611000Y-89027000D03*
X62611000Y-86487000D03*
X62611000Y-83947000D03*
G04 #@! TD*
D16*
G04 #@! TO.C,J4*
X93091000Y-107950000D03*
D17*
X93091000Y-110490000D03*
G04 #@! TD*
D18*
G04 #@! TO.C,H2*
X55000000Y-115000000D03*
G04 #@! TD*
D19*
G04 #@! TO.C,H1*
X114999999Y-54999992D03*
G04 #@! TD*
D20*
G04 #@! TO.C,J1*
X55499000Y-64770000D03*
D21*
X58039000Y-64770000D03*
X55499000Y-67310000D03*
X58039000Y-67310000D03*
X55499000Y-69850000D03*
X58039000Y-69850000D03*
X55499000Y-72390000D03*
X58039000Y-72390000D03*
X55499000Y-74930000D03*
X58039000Y-74930000D03*
G04 #@! TD*
D18*
G04 #@! TO.C,H4*
X55000000Y-55000000D03*
G04 #@! TD*
D16*
G04 #@! TO.C,J3*
X86868000Y-60579000D03*
D17*
X89408000Y-60579000D03*
X86868000Y-63119000D03*
X89408000Y-63119000D03*
X86868000Y-65659000D03*
X89408000Y-65659000D03*
X86868000Y-68199000D03*
X89408000Y-68199000D03*
G04 #@! TD*
D22*
G04 #@! TO.C,C14*
X85369400Y-112061000D03*
X85369400Y-107061000D03*
G04 #@! TD*
D18*
G04 #@! TO.C,H3*
X115000000Y-115000000D03*
G04 #@! TD*
D23*
G04 #@! TO.C,C4*
X83925500Y-78359000D03*
X86000500Y-78359000D03*
G04 #@! TD*
D24*
G04 #@! TO.C,C6*
X90551000Y-82909500D03*
X90551000Y-84984500D03*
G04 #@! TD*
D25*
G04 #@! TO.C,C2*
X87524500Y-89027000D03*
X85449500Y-89027000D03*
G04 #@! TD*
D26*
G04 #@! TO.C,C8*
X78867000Y-90064500D03*
X78867000Y-87989500D03*
G04 #@! TD*
D25*
G04 #@! TO.C,C5*
X92096500Y-89027000D03*
X90021500Y-89027000D03*
G04 #@! TD*
D27*
X67634800Y-103293000D03*
X67634800Y-108881000D03*
X92179428Y-90551000D03*
X76073000Y-96647000D03*
X76052800Y-103455000D03*
X92075000Y-82931000D03*
X83947000Y-79883000D03*
X86995000Y-91059000D03*
X80899000Y-90043000D03*
X67437000Y-70104000D03*
X96139000Y-74549000D03*
X70612000Y-77343000D03*
X93726000Y-78232000D03*
X80772000Y-91440000D03*
X81661000Y-93726000D03*
X85598000Y-95123000D03*
X87249000Y-95758000D03*
X88265000Y-94361000D03*
X88519000Y-95504000D03*
X97282000Y-91567000D03*
X98044000Y-90678000D03*
X83566000Y-60833000D03*
X83566000Y-69596000D03*
X88519000Y-78486000D03*
X74295000Y-81153000D03*
X89281000Y-79502000D03*
X66929000Y-87249000D03*
X116586000Y-99695000D03*
X91572000Y-71618000D03*
X82169000Y-116713000D03*
X77673200Y-111048800D03*
X91059000Y-90551000D03*
X77830800Y-112980000D03*
X106680000Y-116713000D03*
X77806000Y-76584980D03*
X85979000Y-79883000D03*
X54716800Y-101804000D03*
X93726000Y-115951000D03*
X116223000Y-85471000D03*
X61595000Y-116967000D03*
X92075000Y-84963000D03*
X91572000Y-60569000D03*
X116205000Y-78613000D03*
X93588451Y-112646633D03*
X86614000Y-114046000D03*
X85471000Y-90551000D03*
X69469000Y-117094000D03*
X74401800Y-115393000D03*
X72491600Y-113487200D03*
X94767400Y-52421400D03*
X116205000Y-89154000D03*
X116205000Y-81915000D03*
X80899000Y-88011000D03*
X106934000Y-112141000D03*
X98425000Y-84836000D03*
X83820000Y-103288500D03*
X100177600Y-108508800D03*
X98628200Y-114579400D03*
M02*
