G04 #@! TF.GenerationSoftware,KiCad,Pcbnew,(6.0.4)*
G04 #@! TF.CreationDate,2023-03-06T11:11:44-05:00*
G04 #@! TF.ProjectId,LED_Module,4c45445f-4d6f-4647-956c-652e6b696361,rev?*
G04 #@! TF.SameCoordinates,Original*
G04 #@! TF.FileFunction,Soldermask,Bot*
G04 #@! TF.FilePolarity,Negative*
%FSLAX46Y46*%
G04 Gerber Fmt 4.6, Leading zero omitted, Abs format (unit mm)*
G04 Created by KiCad (PCBNEW (6.0.4)) date 2023-03-06 11:11:44*
%MOMM*%
%LPD*%
G01*
G04 APERTURE LIST*
G04 Aperture macros list*
%AMRoundRect*
0 Rectangle with rounded corners*
0 $1 Rounding radius*
0 $2 $3 $4 $5 $6 $7 $8 $9 X,Y pos of 4 corners*
0 Add a 4 corners polygon primitive as box body*
4,1,4,$2,$3,$4,$5,$6,$7,$8,$9,$2,$3,0*
0 Add four circle primitives for the rounded corners*
1,1,$1+$1,$2,$3*
1,1,$1+$1,$4,$5*
1,1,$1+$1,$6,$7*
1,1,$1+$1,$8,$9*
0 Add four rect primitives between the rounded corners*
20,1,$1+$1,$2,$3,$4,$5,0*
20,1,$1+$1,$4,$5,$6,$7,0*
20,1,$1+$1,$6,$7,$8,$9,0*
20,1,$1+$1,$8,$9,$2,$3,0*%
G04 Aperture macros list end*
%ADD10RoundRect,0.250000X-0.350000X-0.625000X0.350000X-0.625000X0.350000X0.625000X-0.350000X0.625000X0*%
%ADD11O,1.200000X1.750000*%
%ADD12R,1.600000X1.600000*%
%ADD13O,1.600000X1.600000*%
%ADD14R,1.700000X1.700000*%
%ADD15O,1.700000X1.700000*%
%ADD16C,3.200000*%
%ADD17C,3.200001*%
%ADD18RoundRect,0.250000X-0.600000X-0.600000X0.600000X-0.600000X0.600000X0.600000X-0.600000X0.600000X0*%
%ADD19C,1.700000*%
%ADD20C,1.600000*%
%ADD21RoundRect,0.250000X-0.337500X-0.475000X0.337500X-0.475000X0.337500X0.475000X-0.337500X0.475000X0*%
%ADD22RoundRect,0.250000X-0.475000X0.337500X-0.475000X-0.337500X0.475000X-0.337500X0.475000X0.337500X0*%
%ADD23RoundRect,0.250000X0.337500X0.475000X-0.337500X0.475000X-0.337500X-0.475000X0.337500X-0.475000X0*%
%ADD24RoundRect,0.250000X0.475000X-0.337500X0.475000X0.337500X-0.475000X0.337500X-0.475000X-0.337500X0*%
%ADD25C,0.800000*%
G04 APERTURE END LIST*
D10*
G04 #@! TO.C,J2*
X73512800Y-106884000D03*
D11*
X75512800Y-106884000D03*
X77512800Y-106884000D03*
G04 #@! TD*
D12*
G04 #@! TO.C,U4*
X54991000Y-83947000D03*
D13*
X54991000Y-86487000D03*
X54991000Y-89027000D03*
X54991000Y-91567000D03*
X62611000Y-91567000D03*
X62611000Y-89027000D03*
X62611000Y-86487000D03*
X62611000Y-83947000D03*
G04 #@! TD*
D14*
G04 #@! TO.C,J4*
X93091000Y-107950000D03*
D15*
X93091000Y-110490000D03*
G04 #@! TD*
D16*
G04 #@! TO.C,H2*
X55000000Y-115000000D03*
G04 #@! TD*
D17*
G04 #@! TO.C,H1*
X114999999Y-54999992D03*
G04 #@! TD*
D18*
G04 #@! TO.C,J1*
X55499000Y-64770000D03*
D19*
X58039000Y-64770000D03*
X55499000Y-67310000D03*
X58039000Y-67310000D03*
X55499000Y-69850000D03*
X58039000Y-69850000D03*
X55499000Y-72390000D03*
X58039000Y-72390000D03*
X55499000Y-74930000D03*
X58039000Y-74930000D03*
G04 #@! TD*
D16*
G04 #@! TO.C,H4*
X55000000Y-55000000D03*
G04 #@! TD*
D14*
G04 #@! TO.C,J3*
X86868000Y-60579000D03*
D15*
X89408000Y-60579000D03*
X86868000Y-63119000D03*
X89408000Y-63119000D03*
X86868000Y-65659000D03*
X89408000Y-65659000D03*
X86868000Y-68199000D03*
X89408000Y-68199000D03*
G04 #@! TD*
D20*
G04 #@! TO.C,C14*
X85369400Y-112061000D03*
X85369400Y-107061000D03*
G04 #@! TD*
D16*
G04 #@! TO.C,H3*
X115000000Y-115000000D03*
G04 #@! TD*
D21*
G04 #@! TO.C,C4*
X83925500Y-78359000D03*
X86000500Y-78359000D03*
G04 #@! TD*
D22*
G04 #@! TO.C,C6*
X90551000Y-82909500D03*
X90551000Y-84984500D03*
G04 #@! TD*
D23*
G04 #@! TO.C,C2*
X87524500Y-89027000D03*
X85449500Y-89027000D03*
G04 #@! TD*
D24*
G04 #@! TO.C,C8*
X78867000Y-90064500D03*
X78867000Y-87989500D03*
G04 #@! TD*
D23*
G04 #@! TO.C,C5*
X92096500Y-89027000D03*
X90021500Y-89027000D03*
G04 #@! TD*
D25*
X67634800Y-103293000D03*
X67634800Y-108881000D03*
X92179428Y-90551000D03*
X76073000Y-96647000D03*
X76052800Y-103455000D03*
X92075000Y-82931000D03*
X83947000Y-79883000D03*
X86995000Y-91059000D03*
X80899000Y-90043000D03*
X67437000Y-70104000D03*
X96139000Y-74549000D03*
X70612000Y-77343000D03*
X93726000Y-78232000D03*
X80772000Y-91440000D03*
X81661000Y-93726000D03*
X85598000Y-95123000D03*
X87249000Y-95758000D03*
X88265000Y-94361000D03*
X88519000Y-95504000D03*
X97282000Y-91567000D03*
X98044000Y-90678000D03*
X83566000Y-60833000D03*
X83566000Y-69596000D03*
X88519000Y-78486000D03*
X74295000Y-81153000D03*
X89281000Y-79502000D03*
X66929000Y-87249000D03*
X116586000Y-99695000D03*
X91572000Y-71618000D03*
X82169000Y-116713000D03*
X77673200Y-111048800D03*
X91059000Y-90551000D03*
X77830800Y-112980000D03*
X106680000Y-116713000D03*
X77806000Y-76584980D03*
X85979000Y-79883000D03*
X54716800Y-101804000D03*
X93726000Y-115951000D03*
X116223000Y-85471000D03*
X61595000Y-116967000D03*
X92075000Y-84963000D03*
X91572000Y-60569000D03*
X116205000Y-78613000D03*
X93588451Y-112646633D03*
X86614000Y-114046000D03*
X85471000Y-90551000D03*
X69469000Y-117094000D03*
X74401800Y-115393000D03*
X72491600Y-113487200D03*
X94767400Y-52421400D03*
X116205000Y-89154000D03*
X116205000Y-81915000D03*
X80899000Y-88011000D03*
X106934000Y-112141000D03*
X98425000Y-84836000D03*
X83820000Y-103288500D03*
X100177600Y-108508800D03*
X98628200Y-114579400D03*
M02*
